<svg xmlns="http://www.w3.org/2000/svg" viewBox="0 0 32 32">
  <defs>
    <linearGradient id="g" x1="0" y1="0" x2="1" y2="1">
      <stop offset="0%" stop-color="#52BFB0"/>
      <stop offset="100%" stop-color="#2F8C7E"/>
    </linearGradient>
  </defs>
  <rect x="1" y="1" width="30" height="30" rx="9" ry="9" fill="url(#g)"/>
  <path d="M16 23.4c-.7 0-1.3-.27-1.85-.78L8.42 17.2a4.7 4.7 0 0 1-1.42-3.36 4.55 4.55 0 0 1 4.6-4.5 4.5 4.5 0 0 1 3.4 1.55c.28.32.56.7.78 1.06.07.12.2.12.27 0 .22-.36.5-.74.78-1.06A4.5 4.5 0 0 1 20.4 9.34a4.55 4.55 0 0 1 4.6 4.5 4.7 4.7 0 0 1-1.42 3.36l-5.74 5.42c-.54.51-1.14.78-1.84.78Z" fill="none" stroke="#fff" stroke-width="1.6" stroke-linecap="round" stroke-linejoin="round"/>
  <path d="M7.5 16.4h2.6l1.4-2.6 1.6 4.4 1.6-3 1.4 1.2h6.4" fill="none" stroke="#fff" stroke-width="1.8" stroke-linecap="round" stroke-linejoin="round"/>
  <circle cx="24.5" cy="8" r="1.6" fill="#fff"/>
</svg>
